<svg id="Layer_1" data-name="Layer 1" xmlns="http://www.w3.org/2000/svg" xmlns:xlink="http://www.w3.org/1999/xlink" viewBox="0 0 92.576 99.793"><defs><style>.cls-1{fill:none;}.cls-2,.cls-3,.cls-65,.cls-68,.cls-69{fill:#032442;}.cls-2{fill-opacity:0.05;}.cls-3{fill-opacity:0.15;opacity:0.66;}.cls-4{fill:url(#linear-gradient);}.cls-5{fill:url(#Shadow_Gradient);}.cls-6{fill:url(#Shadow_Gradient-2);}.cls-7{fill:url(#linear-gradient-2);}.cls-8{fill:url(#Shadow_Gradient-3);}.cls-9{fill:url(#linear-gradient-3);}.cls-10{fill:url(#Shadow_Gradient-4);}.cls-11{fill:url(#Shadow_Gradient-5);}.cls-12{fill:url(#linear-gradient-4);}.cls-13{fill:#1d1d1b;}.cls-14{fill:url(#linear-gradient-5);}.cls-15{fill:url(#linear-gradient-6);}.cls-16{fill:url(#Highlight_Gradient);}.cls-17{fill:url(#linear-gradient-7);}.cls-18{fill:url(#linear-gradient-8);}.cls-19{fill:url(#linear-gradient-9);}.cls-20{fill:url(#Highlight_Gradient-2);}.cls-21{opacity:0.5;}.cls-22{fill:url(#linear-gradient-10);}.cls-23{fill:url(#linear-gradient-11);}.cls-24{fill:url(#Shadow_Gradient-6);}.cls-25{fill:url(#linear-gradient-12);}.cls-26{fill:url(#linear-gradient-13);}.cls-27{fill:url(#linear-gradient-14);}.cls-28{fill:url(#linear-gradient-15);}.cls-29{fill:url(#Shadow_Gradient-7);}.cls-30{fill:url(#Shadow_Gradient-8);}.cls-31{fill:url(#Shadow_Gradient-9);}.cls-32{fill:url(#Shadow_Gradient-10);}.cls-33{fill:url(#linear-gradient-16);}.cls-34{fill:url(#linear-gradient-17);}.cls-35{clip-path:url(#clip-path);}.cls-36{fill:url(#linear-gradient-18);}.cls-37{fill:url(#Shadow_Gradient-11);}.cls-38{fill:url(#Shadow_Gradient-12);}.cls-39{fill:url(#Shadow_Gradient-13);}.cls-40{fill:url(#linear-gradient-19);}.cls-41{fill:url(#Shadow_Gradient-14);}.cls-42{fill:url(#linear-gradient-20);}.cls-43{fill:url(#linear-gradient-21);}.cls-44{stroke:#cfa575;stroke-miterlimit:10;stroke-width:0.28px;fill:url(#linear-gradient-22);}.cls-45{fill:#5b0f0f;fill-opacity:0.2;}.cls-46,.cls-69{opacity:0.1;}.cls-47{fill:url(#linear-gradient-23);}.cls-48{fill:url(#linear-gradient-24);}.cls-49{fill:url(#linear-gradient-25);}.cls-50{fill:url(#linear-gradient-26);}.cls-51{fill:url(#linear-gradient-27);}.cls-52{fill:url(#linear-gradient-28);}.cls-53{fill:url(#linear-gradient-29);}.cls-54{fill:url(#linear-gradient-30);}.cls-55{fill:url(#Shadow_Gradient-15);}.cls-56{opacity:0.16;}.cls-57,.cls-58{fill:#fff;}.cls-58{opacity:0.15;}.cls-59{fill:url(#linear-gradient-31);}.cls-60{fill:url(#linear-gradient-32);}.cls-61{fill:url(#Shadow_Gradient-16);}.cls-62{fill:url(#Shadow_Gradient-17);}.cls-63{fill:url(#linear-gradient-33);}.cls-64,.cls-68{opacity:0.2;}.cls-66{opacity:0.12;}.cls-67{opacity:0.24;}.cls-70{clip-path:url(#clip-path-2);}.cls-71{fill:url(#radial-gradient);}.cls-72{fill:url(#linear-gradient-34);}.cls-73{clip-path:url(#clip-path-3);}.cls-74{fill:url(#radial-gradient-2);}.cls-75{fill:url(#linear-gradient-35);}</style><linearGradient id="linear-gradient" x1="31.503" y1="57.226" x2="30.03" y2="54.278" gradientUnits="userSpaceOnUse"><stop offset="0" stop-color="#d9b78b"/><stop offset="0.165" stop-color="#e4c79c"/><stop offset="0.402" stop-color="#efd7ac"/><stop offset="0.665" stop-color="#f5e0b6"/><stop offset="1" stop-color="#f7e3b9"/></linearGradient><linearGradient id="Shadow_Gradient" x1="30.329" y1="66.156" x2="33.963" y2="62.33" gradientUnits="userSpaceOnUse"><stop offset="0" stop-opacity="0"/><stop offset="1" stop-opacity="0.4"/></linearGradient><linearGradient id="Shadow_Gradient-2" x1="33.444" y1="63" x2="31.186" y2="60.683" xlink:href="#Shadow_Gradient"/><linearGradient id="linear-gradient-2" x1="30.608" y1="59.875" x2="27.58" y2="59.691" xlink:href="#linear-gradient"/><linearGradient id="Shadow_Gradient-3" x1="28.666" y1="61.255" x2="33.634" y2="57.596" xlink:href="#Shadow_Gradient"/><linearGradient id="linear-gradient-3" x1="26.651" y1="50.839" x2="34.808" y2="51.734" gradientUnits="userSpaceOnUse"><stop offset="0" stop-color="#a4a0bd"/><stop offset="1" stop-color="#202026"/></linearGradient><linearGradient id="Shadow_Gradient-4" x1="31.956" y1="64.231" x2="31.659" y2="68.104" xlink:href="#Shadow_Gradient"/><linearGradient id="Shadow_Gradient-5" x1="34.416" y1="64.726" x2="34.155" y2="68.125" xlink:href="#Shadow_Gradient"/><linearGradient id="linear-gradient-4" x1="41.628" y1="74.248" x2="48.73" y2="84.309" gradientTransform="matrix(0.482, 0.908, -0.876, 0.499, 96.829, -1.337)" xlink:href="#linear-gradient-3"/><linearGradient id="linear-gradient-5" x1="34.2" y1="74.947" x2="49.178" y2="78.84" xlink:href="#linear-gradient-3"/><linearGradient id="linear-gradient-6" x1="16.162" y1="63.076" x2="53.774" y2="60.456" xlink:href="#linear-gradient-3"/><linearGradient id="Highlight_Gradient" x1="28.886" y1="52.53" x2="34.9" y2="53.901" gradientUnits="userSpaceOnUse"><stop offset="0" stop-color="#fff" stop-opacity="0.4"/><stop offset="1" stop-color="#fff" stop-opacity="0"/></linearGradient><linearGradient id="linear-gradient-7" x1="74.205" y1="54.607" x2="64.417" y2="72.366" xlink:href="#linear-gradient-3"/><linearGradient id="linear-gradient-8" x1="78.661" y1="63.226" x2="72.825" y2="69.772" xlink:href="#linear-gradient-3"/><linearGradient id="linear-gradient-9" x1="71.715" y1="54.155" x2="73.834" y2="74.923" xlink:href="#linear-gradient-3"/><linearGradient id="Highlight_Gradient-2" x1="74.821" y1="62.801" x2="71.847" y2="75.545" xlink:href="#Highlight_Gradient"/><linearGradient id="linear-gradient-10" x1="23.567" y1="63.801" x2="58.107" y2="64.08" xlink:href="#linear-gradient-3"/><linearGradient id="linear-gradient-11" x1="71.075" y1="59.536" x2="62.74" y2="59.536" xlink:href="#linear-gradient-3"/><linearGradient id="Shadow_Gradient-6" x1="42.762" y1="65.025" x2="38.568" y2="68.809" xlink:href="#Shadow_Gradient"/><linearGradient id="linear-gradient-12" x1="37.242" y1="70.648" x2="37.242" y2="70.648" gradientUnits="userSpaceOnUse"><stop offset="0" stop-color="#fff" stop-opacity="0.35"/><stop offset="0.023" stop-color="#fff" stop-opacity="0.331"/><stop offset="0.189" stop-color="#fff" stop-opacity="0.211"/><stop offset="0.363" stop-color="#fff" stop-opacity="0.118"/><stop offset="0.547" stop-color="#fff" stop-opacity="0.052"/><stop offset="0.749" stop-color="#fff" stop-opacity="0.013"/><stop offset="1" stop-color="#fff" stop-opacity="0"/></linearGradient><linearGradient id="linear-gradient-13" x1="34.972" y1="65.012" x2="63.948" y2="57.888" xlink:href="#linear-gradient-12"/><linearGradient id="linear-gradient-14" x1="66.363" y1="63.176" x2="50.412" y2="62.656" xlink:href="#linear-gradient-12"/><linearGradient id="linear-gradient-15" x1="38.689" y1="51.858" x2="50.534" y2="55.292" gradientTransform="matrix(0.871, 0.034, 0.034, 0.991, 2.848, -0.513)" xlink:href="#linear-gradient-3"/><linearGradient id="Shadow_Gradient-7" x1="43.728" y1="60.1" x2="35.812" y2="63.354" gradientTransform="translate(0.375 4.569) rotate(-5.785)" xlink:href="#Shadow_Gradient"/><linearGradient id="Shadow_Gradient-8" x1="60.739" y1="60.546" x2="51.735" y2="64.248" gradientTransform="translate(0.254 -5.132) rotate(5.486)" xlink:href="#Shadow_Gradient"/><linearGradient id="Shadow_Gradient-9" x1="27.233" y1="64.459" x2="19.401" y2="67.679" gradientTransform="matrix(-0.947, 0.321, 0.321, 0.947, 57.147, -9.432)" xlink:href="#Shadow_Gradient"/><linearGradient id="Shadow_Gradient-10" x1="31.432" y1="49.74" x2="47.233" y2="46.668" xlink:href="#Shadow_Gradient"/><linearGradient id="linear-gradient-16" x1="64.571" y1="68.421" x2="64.571" y2="68.421" xlink:href="#linear-gradient-3"/><linearGradient id="linear-gradient-17" x1="68.814" y1="31.169" x2="67.975" y2="45.012" xlink:href="#linear-gradient-3"/><clipPath id="clip-path" transform="translate(0 -0.207)"><path class="cls-1" d="M80.85,42.44a3.149,3.149,0,0,1-4.34.9L74.324,42.11a3.15,3.15,0,0,1-1.487-4.176L77,30.533a3.572,3.572,0,0,1,4.576-1.382l1.2,1.055a6.982,6.982,0,0,1,.871,6.7Z"/></clipPath><linearGradient id="linear-gradient-18" x1="81.101" y1="33.348" x2="86.294" y2="26.936" xlink:href="#linear-gradient"/><linearGradient id="Shadow_Gradient-11" x1="71.041" y1="42.311" x2="67.201" y2="43.449" xlink:href="#Shadow_Gradient"/><linearGradient id="Shadow_Gradient-12" x1="77.813" y1="37.476" x2="82.111" y2="28.244" xlink:href="#Shadow_Gradient"/><linearGradient id="Shadow_Gradient-13" x1="79.751" y1="38.379" x2="84.049" y2="29.146" xlink:href="#Shadow_Gradient"/><linearGradient id="linear-gradient-19" x1="72.87" y1="39.152" x2="76.942" y2="35.953" xlink:href="#linear-gradient"/><linearGradient id="Shadow_Gradient-14" x1="73.562" y1="38.568" x2="70.205" y2="40.149" xlink:href="#Shadow_Gradient"/><linearGradient id="linear-gradient-20" x1="77.762" y1="33.684" x2="76.042" y2="42.52" xlink:href="#linear-gradient-3"/><linearGradient id="linear-gradient-21" x1="56.537" y1="1.699" x2="58.297" y2="6.819" xlink:href="#linear-gradient-3"/><linearGradient id="linear-gradient-22" x1="21.581" y1="30.554" x2="63.942" y2="19.426" xlink:href="#linear-gradient"/><linearGradient id="linear-gradient-23" x1="29.54" y1="6.926" x2="41.702" y2="27.99" xlink:href="#linear-gradient-3"/><linearGradient id="linear-gradient-24" x1="0.121" y1="28.593" x2="5.044" y2="30.459" xlink:href="#linear-gradient-3"/><linearGradient id="linear-gradient-25" x1="2.391" y1="26.711" x2="11.476" y2="28.695" xlink:href="#linear-gradient-3"/><linearGradient id="linear-gradient-26" x1="117.412" y1="-150.434" x2="114.914" y2="-148.421" gradientTransform="matrix(0.738, 0.848, -1.006, 0.541, -225.582, 10.818)" xlink:href="#linear-gradient-3"/><linearGradient id="linear-gradient-27" x1="4.207" y1="40.071" x2="7.298" y2="39.599" xlink:href="#linear-gradient-3"/><linearGradient id="linear-gradient-28" x1="2.241" y1="41.532" x2="11.744" y2="34.86" xlink:href="#linear-gradient-3"/><linearGradient id="linear-gradient-29" x1="1.447" y1="24.003" x2="-1.924" y2="26.79" gradientTransform="matrix(0.682, 0.796, -0.732, 0.742, 30.578, 20.537)" xlink:href="#linear-gradient-3"/><linearGradient id="linear-gradient-30" x1="19.025" y1="-11.285" x2="52.723" y2="47.078" xlink:href="#linear-gradient-3"/><linearGradient id="Shadow_Gradient-15" x1="41.135" y1="11.909" x2="42.271" y2="15.759" xlink:href="#Shadow_Gradient"/><linearGradient id="linear-gradient-31" x1="-0.029" y1="23.69" x2="67.739" y2="7.73" xlink:href="#linear-gradient-3"/><linearGradient id="linear-gradient-32" x1="20.8" y1="4.72" x2="21.401" y2="28.181" xlink:href="#linear-gradient-3"/><linearGradient id="Shadow_Gradient-16" x1="38.422" y1="31.876" x2="49.707" y2="36.578" xlink:href="#Shadow_Gradient"/><linearGradient id="Shadow_Gradient-17" x1="40.053" y1="27.962" x2="51.338" y2="32.664" xlink:href="#Shadow_Gradient"/><linearGradient id="linear-gradient-33" x1="23.49" y1="76.238" x2="25.289" y2="82.326" gradientTransform="matrix(0.998, -0.066, 0.066, 0.998, 17.326, -41.959)" gradientUnits="userSpaceOnUse"><stop offset="0"/><stop offset="0.096" stop-opacity="0.78"/><stop offset="1" stop-opacity="0"/></linearGradient><clipPath id="clip-path-2" transform="translate(0 -0.207)"><polygon class="cls-1" points="29.737 32.191 27.5 24 35.61 24 37.568 29.074 29.737 32.191"/></clipPath><radialGradient id="radial-gradient" cx="-76.293" cy="142.61" r="4.203" gradientTransform="matrix(0.012, 1, -0.692, 0.007, 132.061, 101.288)" gradientUnits="userSpaceOnUse"><stop offset="0"/><stop offset="0.122" stop-color="#11111b"/><stop offset="0.384" stop-color="#3d3c60"/><stop offset="0.763" stop-color="#8381cd"/><stop offset="0.871" stop-color="#9895ed"/></radialGradient><linearGradient id="linear-gradient-34" x1="-76.137" y1="139.814" x2="-75.863" y2="141.765" gradientTransform="matrix(1.067, 0.275, -0.305, 0.961, 156.583, -90.368)" gradientUnits="userSpaceOnUse"><stop offset="0" stop-color="#a4a0bd"/><stop offset="1" stop-color="#fff"/></linearGradient><clipPath id="clip-path-3" transform="translate(0 -0.207)"><polygon class="cls-1" points="60.87 23.009 57.344 14.836 50.653 20.207 52.372 25.657 60.87 23.009"/></clipPath><radialGradient id="radial-gradient-2" cx="-1073.475" cy="379.271" r="4.446" gradientTransform="matrix(0.207, 0.971, 0.584, -0.167, 55.426, 1124.392)" xlink:href="#radial-gradient"/><linearGradient id="linear-gradient-35" x1="-995.095" y1="326.711" x2="-994.757" y2="329.113" gradientTransform="matrix(-0.965, 0.533, 0.536, 0.855, -1080.362, 266.677)" xlink:href="#linear-gradient-34"/></defs><title>jump-kick</title><ellipse class="cls-2" cx="43.71" cy="97.41" rx="34.817" ry="2.382"/><ellipse class="cls-3" cx="42.961" cy="97.493" rx="12.877" ry="1.217"/><path class="cls-4" d="M39.2,59.785a3.149,3.149,0,0,0-2.836-3.407l-2.475-.4A3.15,3.15,0,0,0,30.12,58.32l-1.175,6.363a3.572,3.572,0,0,0,2.719,3.931s-0.215,0,1.6-.075,4.6-3.111,4.855-4.7Z" transform="translate(0 -0.207)"/><path class="cls-5" d="M36.36,56.379L34.14,56.02a2.919,2.919,0,0,0-2.348,2.3l-1.175,6.363a3.617,3.617,0,0,0,2.432,3.867l0.214-.01a6.983,6.983,0,0,0,4.855-4.7L39.2,59.785A3.149,3.149,0,0,0,36.36,56.379Z" transform="translate(0 -0.207)"/><path class="cls-6" d="M33.95,58.748a3.351,3.351,0,0,1-1.493,2.523L32.3,63.595a2.632,2.632,0,0,1-2.243,1.853c-0.933-.064-1.29-0.211-1.244-0.881a26.056,26.056,0,0,1,.49-6.782A2.631,2.631,0,0,1,31.977,55.4C33.276,55.443,34.152,57.052,33.95,58.748Z" transform="translate(0 -0.207)"/><path class="cls-7" d="M33.967,58.92a3.352,3.352,0,0,1-2.02,2.126l-0.674,2.229a2.632,2.632,0,0,1-2.6,1.305c-0.9-.271-1.211-0.494-1.016-1.137a26.065,26.065,0,0,1,1.993-6.5,2.631,2.631,0,0,1,3.14-1.727C34.048,55.547,34.542,57.312,33.967,58.92Z" transform="translate(0 -0.207)"/><path class="cls-8" d="M33.967,58.92a3.352,3.352,0,0,1-2.02,2.126l-0.674,2.229a2.632,2.632,0,0,1-2.6,1.305c-0.9-.271-1.211-0.494-1.016-1.137a26.065,26.065,0,0,1,1.993-6.5,2.631,2.631,0,0,1,3.14-1.727C34.048,55.547,34.542,57.312,33.967,58.92Z" transform="translate(0 -0.207)"/><path class="cls-9" d="M34.752,45.321a45.725,45.725,0,0,0-4.558,9.134q-0.142.432-.291,0.862c-0.13.379-1.322,4.356-1.322,4.356a3.8,3.8,0,0,1,4.489-1.718,21.071,21.071,0,0,0,8.224.34,28.016,28.016,0,0,0,3.987-5.461C53.025,39.342,34.752,45.321,34.752,45.321Z" transform="translate(0 -0.207)"/><path class="cls-10" d="M30.737,68.289a2.868,2.868,0,0,0,.589.248c0.735-.158,1.749-1.052,1.332-4.95C32.658,63.586,32.73,68.275,30.737,68.289Z" transform="translate(0 -0.207)"/><path class="cls-11" d="M34,68.388a6.268,6.268,0,0,0,.647-0.422,7.74,7.74,0,0,0-.681-4.016S34.791,67.025,34,68.388Z" transform="translate(0 -0.207)"/><ellipse class="cls-12" cx="47.695" cy="82.31" rx="8.251" ry="7.818" transform="translate(-47.412 84.24) rotate(-61.197)"/><ellipse class="cls-13" cx="66.834" cy="61.606" rx="1.175" ry="0.29"/><path class="cls-14" d="M58.757,71.8l-16.522-4.16L40.419,80.747h0s0,0.131,0,.139a6.806,6.806,0,0,0,5.549,6.646c3.79,0.956,6.915-.711,8.173-3.317,0-.007,0-0.058.007-0.058h0Z" transform="translate(0 -0.207)"/><path class="cls-15" d="M34.057,44.616S30.365,54.127,37.028,68.1c2.5,5.253,5.032,12.523,17.289,13.555a27.831,27.831,0,0,0,14.09-2.539s0.533-28.361-10.083-39.16C56.6,38.205,32.756,39.146,34.057,44.616Z" transform="translate(0 -0.207)"/><path class="cls-16" d="M38.42,70.328c-6.662-13.972-2.971-23.483-2.971-23.483-1.3-5.47,22.545-6.411,24.266-4.66a19.552,19.552,0,0,1,2.051,2.489,21.9,21.9,0,0,0-3.444-4.717c-1.721-1.75-25.566-.81-24.266,4.66,0,0-3.691,9.511,2.971,23.483a40.957,40.957,0,0,0,3.5,6.552C39.715,73.171,39.066,71.682,38.42,70.328Z" transform="translate(0 -0.207)"/><path class="cls-17" d="M71.921,64.91L61.839,63.564a4.3,4.3,0,0,0-.906-0.1c-3.226,0-5.853,3.814-5.853,8.519s2.609,8.519,5.835,8.519a4.505,4.505,0,0,0,.928-0.1l10.079-1.346V64.91Z" transform="translate(0 -0.207)"/><path class="cls-18" d="M78.009,73.2c-1.569,4.278-5.486,6.232-7.226,5.663-3.8-1.245-6.679-6.366-5.109-10.644,1.471-4.011,6.5-5.9,10.074-5.04a2.725,2.725,0,0,1,.71.215C78.181,64.352,79.578,68.92,78.009,73.2Z" transform="translate(0 -0.207)"/><path class="cls-19" d="M79.278,73.207c-1.569,4.278-5.455,6.788-8.678,5.605s-4.565-5.609-3-9.888c1.471-4.011,4.979-6.467,8.067-5.784a4.711,4.711,0,0,1,.611.179C79.507,64.5,80.847,68.929,79.278,73.207Z" transform="translate(0 -0.207)"/><path class="cls-20" d="M67.72,69.311c1.471-4.011,4.979-6.467,8.067-5.784a4.717,4.717,0,0,1,.611.179,5.507,5.507,0,0,1,3.24,3.615,5.625,5.625,0,0,0-3.356-4,4.711,4.711,0,0,0-.611-0.179c-3.089-.683-6.6,1.773-8.067,5.784a9.673,9.673,0,0,0-.245,6.273A9.816,9.816,0,0,1,67.72,69.311Z" transform="translate(0 -0.207)"/><path class="cls-21" d="M46.761,64.507a69.578,69.578,0,0,1,20.426-1.993c-0.205-1.339-.444-2.705-0.723-4.077a57.582,57.582,0,0,0-20.8,1.749c-6.125,1.646-8.424,4.366-9.18,6.734,0.173,0.39.351,0.782,0.541,1.179,0.442,0.927.886,1.917,1.383,2.925C38.4,69.965,39,66.472,46.761,64.507Z" transform="translate(0 -0.207)"/><path class="cls-22" d="M46.482,63.671A68.656,68.656,0,0,1,68,61.756c-0.216-1.327-.463-2.674-0.748-4.024a56.838,56.838,0,0,0-21.863,1.619c-7.686,2.065-9.35,5.823-9.5,8.452a5.334,5.334,0,0,0,.748,1.373,3.093,3.093,0,0,0,.584,1.474,1.5,1.5,0,0,0,.93-0.149C38.147,70.456,37.3,66,46.482,63.671Z" transform="translate(0 -0.207)"/><path class="cls-23" d="M67.251,57.731a51.213,51.213,0,0,0-8.957-.365l1.252,4.327A61.581,61.581,0,0,1,68,61.756a5.72,5.72,0,0,0-.3-1.895,2.05,2.05,0,0,0-.057-1.152A3.03,3.03,0,0,0,67.251,57.731Z" transform="translate(0 -0.207)"/><path class="cls-24" d="M44.209,64.358c-6.833,2.145-6.962,5.55-6.905,6.28l0.852-.137C38.148,70.46,37.453,66.775,44.209,64.358Z" transform="translate(0 -0.207)"/><path class="cls-25" d="M37.242,70.648" transform="translate(0 -0.207)"/><path class="cls-26" d="M35.94,67.888c0.145-2.63,2.939-6.445,10.625-8.51a49.04,49.04,0,0,1,20.791-1.113c-0.036-.178-0.068-0.356-0.106-0.534a56.838,56.838,0,0,0-21.863,1.619c-7.686,2.065-9.35,5.823-9.5,8.452Z" transform="translate(0 -0.207)"/><path class="cls-27" d="M35.94,67.888c0.145-2.63,2.939-6.445,10.625-8.51A48.548,48.548,0,0,1,66.747,57.9c0.293-.007.542,0.009,0.5-0.169a56.838,56.838,0,0,0-21.863,1.619c-7.686,2.065-9.35,5.823-9.5,8.452Z" transform="translate(0 -0.207)"/><path class="cls-28" d="M37.175,51.635a0.631,0.631,0,0,1,.364-0.357,0.467,0.467,0,0,1,.689.342c0.538,1.507,1.058,2.814,1.557,3.9l0.874-3.729a0.812,0.812,0,0,1,.447-0.632c0.321-.125.578,0.03,0.771,0.47a15.589,15.589,0,0,0,1.407,2.577,13.546,13.546,0,0,1-.059-4.767,0.7,0.7,0,0,1,.432-0.52,0.726,0.726,0,0,1,.546-0.01,0.59,0.59,0,0,1,.369.377,0.709,0.709,0,0,1,.021.41,10.324,10.324,0,0,0-.024,3.205,16.687,16.687,0,0,0,.607,3.344,1.125,1.125,0,0,1,.048.6,0.521,0.521,0,0,1-.376.416,0.9,0.9,0,0,1-.749-0.191A8.877,8.877,0,0,1,41.49,53.9q-0.379,1.752-.564,2.629-0.355,1.557-.817,1.69a0.648,0.648,0,0,1-.626-0.464,35.974,35.974,0,0,1-2.315-5.6A0.736,0.736,0,0,1,37.175,51.635Z" transform="translate(0 -0.207)"/><path class="cls-29" d="M36.981,69s1.265-8.049,18.053-10.932C55.034,58.071,36.787,60.378,36.981,69Z" transform="translate(0 -0.207)"/><path class="cls-30" d="M38.31,67.664a5.725,5.725,0,0,1,1.632-2.647c1.369-1.343,6.108-4.928,21.314-4.3C61.256,60.722,41.906,59.869,38.31,67.664Z" transform="translate(0 -0.207)"/><path class="cls-31" d="M67.565,60.849a12.492,12.492,0,0,0-6.245-1.436c-1.917.016-9.852,0.334-14.694,2.171C46.626,61.584,57.847,58.846,67.565,60.849Z" transform="translate(0 -0.207)"/><path class="cls-32" d="M49.081,49.483a40.058,40.058,0,0,0,7.306-3.531,16.371,16.371,0,0,0-1.5-1.769c-1.471-1.5-21.862-.693-20.75,3.985a14.953,14.953,0,0,0-.71,3.308A33.626,33.626,0,0,0,49.081,49.483Z" transform="translate(0 -0.207)"/><path class="cls-33" d="M64.571,68.421" transform="translate(0 -0.207)"/><path class="cls-34" d="M57.837,40.392c2.525-1.21,8.764-2.335,12.921-3.077,3.668-.655,7.6-1.9,7.974.864,0.264,1.94,2.685,3.34-.672,6.744-2.227,2.259-9.827,5.552-13.941,6.914C55.191,54.793,55.312,41.6,57.837,40.392Z" transform="translate(0 -0.207)"/><g class="cls-35"><path class="cls-36" d="M81.057,41.412a3.028,3.028,0,0,1-4.173.864l-2.1-1.181a3.028,3.028,0,0,1-1.429-4.015l4-7.115a3.434,3.434,0,0,1,4.4-1.329l1.158,1.014a6.712,6.712,0,0,1,.837,6.441Z" transform="translate(0 -0.207)"/><path class="cls-37" d="M70.136,42.206l0.218-1.98a2.476,2.476,0,0,0-.891-1.572L67.3,42.495a2.694,2.694,0,0,0,1.271,3.571l1.282,0.721A3.1,3.1,0,0,0,70.136,42.206Z" transform="translate(0 -0.207)"/><path class="cls-38" d="M81.655,28.978l-0.167-.147a2.367,2.367,0,0,0-.366-0.163c1.735,1.228-1.811,5.307-1.811,5.307C82,31.689,82.057,29.727,81.655,28.978Z" transform="translate(0 -0.207)"/><path class="cls-39" d="M81.334,35.12c1.768-1.72,2.006-3.246,1.88-4.246a4.408,4.408,0,0,0-.306-0.607C83.621,32.054,81.334,35.12,81.334,35.12Z" transform="translate(0 -0.207)"/></g><path class="cls-40" d="M77.7,39.816c-0.3-1.107-1.848-2.016-2.672-2.343l-0.5-2.274a2.633,2.633,0,0,0-2.494-1.5c-0.913.2-1.244,0.4-1.1,1.057a18.878,18.878,0,0,0,1.5,6.633c0.335,0.743,1.981,2.239,3,1.959C76.687,43.006,78.155,41.463,77.7,39.816Z" transform="translate(0 -0.207)"/><path class="cls-41" d="M75.711,42.794c-1.02.28-2.666-1.216-3-1.959a18.878,18.878,0,0,1-1.5-6.633,1.32,1.32,0,0,1-.029-0.207,0.626,0.626,0,0,0-.249.764,18.878,18.878,0,0,0,1.5,6.633c0.335,0.743,1.981,2.239,3,1.959a2.135,2.135,0,0,0,1.394-1.4A1.97,1.97,0,0,1,75.711,42.794Z" transform="translate(0 -0.207)"/><path class="cls-42" d="M72.276,41.24a59.415,59.415,0,0,0,7.806-5.37c0.9,4.771-.286,7.352-0.286,7.352S75.162,48.45,72.276,41.24Z" transform="translate(0 -0.207)"/><ellipse class="cls-43" cx="60.342" cy="12.768" rx="8.598" ry="1.846"/><path class="cls-44" d="M64.42,12.576c5.376,10.889-3.489,26.992-17.474,33.9S19.9,48.922,14.52,38.033s1.6-25.314,15.587-32.219S59.043,1.686,64.42,12.576Z" transform="translate(0 -0.207)"/><path class="cls-45" d="M47.194,28.876a68.766,68.766,0,0,0-18.247,8.575c-4.194,2.534-5.679.612-5.854,0s-1.891-1.011-2.5-5.817,8.26-10.4,23.271-14.3c8.584-2.228,13.822-3.751,20.74-4.372-0.059-.129-0.118-0.259-0.182-0.387C59.043,1.686,44.092-1.091,30.107,5.814S9.144,27.144,14.52,38.033s18.441,15.345,32.426,8.44c8.775-4.333,15.534-12.287,18.024-20.3A72.865,72.865,0,0,0,47.194,28.876Z" transform="translate(0 -0.207)"/><path class="cls-46" d="M64.42,12.576C61.108,5.869,54.165,2.24,46.052,2.054c-0.142,0-.284,0-0.427.008,7.989,0.264,14.808,3.886,18.08,10.514,5.376,10.889-3.489,26.992-17.474,33.9A30.317,30.317,0,0,1,34,49.755c0.134,0.005.269,0.006,0.4,0.009a30.157,30.157,0,0,0,12.542-3.29C60.93,39.568,69.8,23.465,64.42,12.576Z" transform="translate(0 -0.207)"/><path class="cls-47" d="M46,28.4a68.651,68.651,0,0,0-18.247,8.575c-3.335,2.018-5.462.456-5.854,0-0.415-.482-2.184-2.709-2.8-7.514s8.13-10.744,23.141-14.64a72.134,72.134,0,0,1,26.637-1.9C63.824,1.3,48.156-2.994,32.284,2.722,15.9,8.625,6.258,23.54,10.759,36.036S29.12,54.909,45.508,49.006C56.871,44.914,66.5,35.14,69.594,25.718,65.549,25.423,54.227,25.8,46,28.4Z" transform="translate(0 -0.207)"/><path class="cls-48" d="M15.733,28.734S2.568,23.079,1.406,27.257,0,32.734,0,32.734-0.2,34.672,3.185,35.5s10.292,0.345,10.292.345Z" transform="translate(0 -0.207)"/><path class="cls-49" d="M1.577,26.849c-0.087.97,2.3,2.114,5.39,2.568,3.12,0.459,5.765.039,5.909-.939,0.07-.472-0.472-0.906-1.394-1.321C7.752,25.944,2.745,24.792,1.577,26.849Z" transform="translate(0 -0.207)"/><path class="cls-50" d="M11.469,28.18c0.078-.53-1.9-1.067-4.341-1.618-2.886-.651-4.546-0.23-4.623.3S4.37,28.116,6.846,28.48,11.391,28.71,11.469,28.18Z" transform="translate(0 -0.207)"/><path class="cls-51" d="M13.6,31.275S1.259,38.554,3.943,41.96s3.588,4.369,3.588,4.369,1.442,1.31,4.109-.936S18,37.3,18,37.3Z" transform="translate(0 -0.207)"/><path class="cls-52" d="M4.459,38.654a8.931,8.931,0,0,0-.787,1.5,1.893,1.893,0,0,0,.271,1.805L3.971,42c0.98,0.191,3.092-1.137,5.069-3.259,2.241-2.4,3.455-4.914,2.713-5.605a0.917,0.917,0,0,0-.807-0.149C8.8,34.447,5.9,36.636,4.459,38.654Z" transform="translate(0 -0.207)"/><ellipse class="cls-53" cx="6.745" cy="38.465" rx="3.616" ry="1.055" transform="translate(-25.997 16.973) rotate(-47.027)"/><path class="cls-54" d="M46,28.4a68.651,68.651,0,0,0-18.247,8.575c-3.335,2.018-5.462.456-5.854,0-0.415-.482-2.184-2.709-2.8-7.514s8.13-10.744,23.141-14.64a72.134,72.134,0,0,1,26.637-1.9C63.824,1.3,48.156-2.994,32.284,2.722,15.9,8.625,6.258,23.54,10.759,36.036S29.12,54.909,45.508,49.006C56.871,44.914,66.5,35.14,69.594,25.718,65.549,25.423,54.227,25.8,46,28.4Z" transform="translate(0 -0.207)"/><path class="cls-55" d="M42.009,13.868C27,17.763,18.256,23.7,18.868,28.507a20.779,20.779,0,0,0,.584,2.946c-0.136-.608-0.254-1.271-0.346-1.993-0.612-4.806,8.13-10.744,23.141-14.64a72.134,72.134,0,0,1,26.637-1.9c-0.145-.333-0.3-0.66-0.462-0.981A72.308,72.308,0,0,0,42.009,13.868Z" transform="translate(0 -0.207)"/><g class="cls-56"><path class="cls-57" d="M46,28.4a68.651,68.651,0,0,0-18.247,8.575,5.657,5.657,0,0,1-3.96.94l0.011,0.013c0.392,0.456,2.519,2.018,5.854,0a68.651,68.651,0,0,1,18.247-8.575c7.022-2.218,16.3-2.818,21.381-2.762q0.161-.436.3-0.872C65.549,25.423,54.227,25.8,46,28.4Z" transform="translate(0 -0.207)"/></g><path class="cls-58" d="M19.159,18.333C33.04,2.613,53.09,4.348,63.289,5.166a21.709,21.709,0,0,0-2.94-1.988C26.153,3.792,19.159,18.333,19.159,18.333Z" transform="translate(0 -0.207)"/><path class="cls-59" d="M24.052,19.453c16.8-10.113,32.615-10.9,43.6-8.893A18.791,18.791,0,0,0,66.3,8.645C38.4,7.133,24.052,19.453,24.052,19.453Z" transform="translate(0 -0.207)"/><path class="cls-58" d="M21.426,36.974l-0.074-.088-0.01-.013c-0.028-.034-0.059-0.073-0.093-0.117l-0.013-.017q-0.053-.069-0.114-0.152l-0.113-.011a8.6,8.6,0,0,1-2.345-5.617v0c-2-4.846-.9-9.84-0.169-13.978,0.541-3.048,3.459-8.057,6.636-11.187A37.9,37.9,0,0,0,19.753,9.56a21.809,21.809,0,0,0-3.483,8.318C15.1,31.534,21.426,36.974,21.426,36.974Z" transform="translate(0 -0.207)"/><path class="cls-60" d="M21.9,36.974l-0.074-.088-0.01-.013c-0.028-.034-0.059-0.073-0.093-0.117l-0.013-.017q-0.053-.069-0.114-0.152l-0.352-.011c-0.577-.788-0.583-2.556-2.583-5.617v0a37.74,37.74,0,0,1,.069-13.978c0.541-3.048,3.578-8.057,6.755-11.187A37.28,37.28,0,0,0,20.17,9.56a21.62,21.62,0,0,0-3.453,8.318C15.546,31.534,21.9,36.974,21.9,36.974Z" transform="translate(0 -0.207)"/><path class="cls-61" d="M52.343,26.888a81,81,0,0,1,15.822-.932c-3.091,9.422-12.722,19.2-24.085,23.288A38.872,38.872,0,0,1,38.1,50.888a38.044,38.044,0,0,0,7.41-1.882C56.871,44.914,66.5,35.14,69.594,25.718A81.652,81.652,0,0,0,52.343,26.888Z" transform="translate(0 -0.207)"/><path class="cls-62" d="M40.818,15.059c-15.011,3.9-23.752,9.834-23.141,14.64s2.381,7.032,2.8,7.514a4.054,4.054,0,0,0,4.178.766,3.7,3.7,0,0,1-2.749-1c-0.415-.482-2.184-2.709-2.8-7.514s8.13-10.744,23.141-14.64c1.957-.508,3.86-0.914,5.691-1.238C45.674,13.938,43.29,14.418,40.818,15.059Z" transform="translate(0 -0.207)"/><path class="cls-63" d="M38.759,35.963s10.559-.142,14.8-5.006C53.562,30.957,53.174,39.87,38.759,35.963Z" transform="translate(0 -0.207)"/><g class="cls-46"><path class="cls-57" d="M40.252,37.081A20.912,20.912,0,0,0,42.8,37.6a19.025,19.025,0,0,0,2.638.231c0.483,0.007.981,0,1.484-.034a12.405,12.405,0,0,0,1.508-.207l0.736-.187,0.706-.253a9.043,9.043,0,0,0,1.32-.632,6.945,6.945,0,0,0,1.943-1.676,7.566,7.566,0,0,0,.912-1.607c0.173-.42.257-0.67,0.257-0.67a0.051,0.051,0,0,1,.065-0.032,0.054,0.054,0,0,1,.033.06s-0.049.257-.164,0.706a5.83,5.83,0,0,1-.767,1.779,6.651,6.651,0,0,1-.83,1.019,7.527,7.527,0,0,1-1.163.89,9.054,9.054,0,0,1-1.386.71l-0.762.26-0.786.187a12.723,12.723,0,0,1-3.125.192,19.465,19.465,0,0,1-2.686-.368,16.784,16.784,0,0,1-2.527-.746,0.074,0.074,0,0,1-.043-0.1A0.076,0.076,0,0,1,40.252,37.081Z" transform="translate(0 -0.207)"/></g><g class="cls-64"><path class="cls-65" d="M77.679,27.12S77.4,27.49,77,28.009l-0.676.9c-0.243.332-.5,0.685-0.747,1.048s-0.465.744-.668,1.1-0.388.7-.529,1c-0.3.591-.463,1.006-0.463,1.006a0.051,0.051,0,0,1-.066.031,0.053,0.053,0,0,1-.033-0.055,6.851,6.851,0,0,1,.263-1.1,10.293,10.293,0,0,1,1.074-2.248,7.951,7.951,0,0,1,1.593-1.918,4.958,4.958,0,0,1,.642-0.509c0.159-.116.259-0.173,0.259-0.173a0.025,0.025,0,0,1,.035.007A0.027,0.027,0,0,1,77.679,27.12Z" transform="translate(0 -0.207)"/></g><g class="cls-66"><path class="cls-65" d="M75.225,27.058s-0.23.332-.58,0.787-0.8,1.069-1.226,1.7a18.437,18.437,0,0,0-1.049,1.814c-0.268.51-.416,0.868-0.416,0.868a0.052,0.052,0,0,1-.067.029,0.053,0.053,0,0,1-.033-0.054,5.79,5.79,0,0,1,.215-0.966A8.662,8.662,0,0,1,73,29.268a6.534,6.534,0,0,1,1.4-1.666,4.02,4.02,0,0,1,.568-0.434,2.463,2.463,0,0,1,.23-0.146,0.025,0.025,0,0,1,.035.008A0.028,0.028,0,0,1,75.225,27.058Z" transform="translate(0 -0.207)"/></g><path class="cls-67" d="M15.419,20.329s-3.6,12.864,10.325,22.61C25.745,42.939,9.849,37,15.419,20.329Z" transform="translate(0 -0.207)"/><path class="cls-58" d="M14.808,21.25s-5.134,12.4,8.463,21.123C23.271,42.373,9.35,36.113,14.808,21.25Z" transform="translate(0 -0.207)"/><polygon class="cls-68" points="86.975 57.31 85.395 55.916 80.673 62.782 86.975 57.31"/><polygon class="cls-69" points="79.813 52.799 77.785 52.222 76.485 60.454 79.813 52.799"/><polygon class="cls-68" points="91.5 64.486 90.677 62.545 83.452 66.698 91.5 64.486"/><polygon class="cls-68" points="92.488 72.842 92.576 70.736 84.269 71.391 92.488 72.842"/><polygon class="cls-69" points="89.844 80.742 90.818 78.873 83.018 75.939 89.844 80.742"/><polygon points="27.662 23.299 27.662 22.432 36.237 22.884 36.237 22.884 27.662 23.299"/><g class="cls-70"><ellipse class="cls-71" cx="32.402" cy="25.953" rx="3.097" ry="4.528" transform="translate(-7.807 15.418) rotate(-24.289)"/><ellipse class="cls-72" cx="32.483" cy="23.987" rx="1.218" ry="1.966" transform="translate(-6.992 15.282) rotate(-24.295)"/></g><polygon points="56.786 13.943 56.244 13.268 49.839 18.988 49.839 18.988 56.786 13.943"/><g class="cls-73"><path class="cls-74" d="M51.878,19.491c-0.574-2.562.2-5,1.718-5.457s3.222,1.258,3.8,3.819S57.2,22.86,55.675,23.312,52.452,22.053,51.878,19.491Z" transform="translate(0 -0.207)"/><path class="cls-75" d="M54.161,17.131c-0.25-1.112.034-2.159,0.633-2.336s1.286,0.58,1.536,1.693S56.3,18.646,55.7,18.824,54.41,18.244,54.161,17.131Z" transform="translate(0 -0.207)"/></g></svg>